<svg width="64" height="64" viewBox="0 0 64 64" fill="none" xmlns="http://www.w3.org/2000/svg">
<rect width="64" height="64" rx="9" fill="#F9F8F6"/>
<path d="M30.0413 38H28.9347L18.9755 14.343V35.912L22.5971 36.4758V38H13V36.4758L16.4606 35.912V12.0671L13 11.5242V10H23.603L31.3089 28.4161L39.1756 10H50V11.5242L46.5394 12.0671V35.912L50 36.4758V38H36.5802V36.4758L40.2017 35.912V14.343L30.0413 38Z" fill="#2C2F3A"/>
<path d="M11.0984 47.2892V51.1494L12.975 51.3703V51.9673H7.1094V51.3703L8.44747 51.1494V41.8097L7 41.597V41H16.4086V43.9524H15.6175L15.3482 42.0141C15.0733 41.976 14.6189 41.9473 13.9849 41.9283C13.3509 41.9092 12.8516 41.8996 12.4869 41.8996H11.0984V46.3896H13.8502L14.1111 44.9993H14.8601V48.6959H14.1111L13.8502 47.2892H11.0984Z" fill="#2C2F3A"/>
<path d="M19.2513 51.3703L20.6988 51.1494V41.8097L19.2513 41.597V41H28.8619V43.7888H28.096L27.8267 42.0141C27.1984 41.9378 26.2895 41.8996 25.1001 41.8996H23.3497V45.9234H26.3035L26.5644 44.713H27.3134V48.0825H26.5644L26.3035 46.8394H23.3497V51.0677H25.4788C26.9263 51.0677 27.8744 51.024 28.3233 50.9368L28.8029 48.9086H29.5688L29.4089 51.9673H19.2513V51.3703Z" fill="#2C2F3A"/>
<path d="M32.4704 51.3703L33.9179 51.1494V41.8097L32.4704 41.597V41H42.081V43.7888H41.3151L41.0459 42.0141C40.4175 41.9378 39.5086 41.8996 38.3192 41.8996H36.5688V45.9234H39.5226L39.7835 44.713H40.5325V48.0825H39.7835L39.5226 46.8394H36.5688V51.0677H38.6979C40.1454 51.0677 41.0935 51.024 41.5424 50.9368L42.0221 48.9086H42.7879L42.628 51.9673H32.4704V51.3703Z" fill="#2C2F3A"/>
<path d="M54.206 46.4877C54.206 44.9066 53.9087 43.7466 53.314 43.0078C52.7193 42.269 51.7515 41.8996 50.4107 41.8996H49.7879V51.0349C50.3265 51.0786 50.8146 51.1004 51.2522 51.1004C51.9816 51.1004 52.558 50.9477 52.9816 50.6424C53.4052 50.3371 53.7151 49.8586 53.9115 49.2071C54.1079 48.5555 54.206 47.6491 54.206 46.4877ZM51.0587 41C53.084 41 54.5805 41.4457 55.5483 42.3372C56.5161 43.2286 57 44.5903 57 46.4223C57 48.3033 56.5371 49.7032 55.6114 50.6219C54.6857 51.5406 53.286 52 51.4121 52L47.6335 51.9673H45.698V51.3703L47.1454 51.1494V41.8097L45.698 41.597V41H51.0587Z" fill="#2C2F3A"/>
</svg>
